<svg xmlns="http://www.w3.org/2000/svg" xmlns:xlink="http://www.w3.org/1999/xlink" width="72" height="62" viewBox="0 0 72 62">
    <defs>
        <path id="a" d="M2 0h46v16L0 13z"/>
    </defs>
    <g fill="none" fill-rule="evenodd">
        <g>
            <circle cx="60" cy="57" r="4" stroke="#C79E59" stroke-width="2"/>
            <circle cx="34" cy="57" r="4" stroke="#C79E59" stroke-width="2"/>
            <circle cx="2.5" cy="2.5" r="2.5" fill="#C79E59" fill-rule="nonzero"/>
            <path stroke="#C79E59" stroke-linecap="round" stroke-linejoin="round" stroke-width="1.987" d="M60 53H33.714c-4.43 0-5.08-2.267-5.86-5.233L17.498 5.805C16.566 2.655 15.254 1 11.633 1H3"/>
            <path stroke="#C79E59" stroke-linecap="round" stroke-linejoin="round" stroke-width="1.987" d="M20 15l51 3-12.916 19.813-8.018 2.618L26.91 43"/>
        </g>
        <path fill="#C79E59" fill-rule="nonzero" stroke="#FFF" d="M64.44 39.766l-4.72.412 3.226 7.226a1 1 0 0 1-.495 1.316l-1.56.718a1 1 0 0 1-1.326-.49l-.011-.025-3.115-7.293-3.245 3.125a1 1 0 0 1-1.694-.72V27.57a1 1 0 0 1 1.687-.727l11.852 11.2a1 1 0 0 1-.6 1.723z"/>
        <g transform="translate(22 1)">
            <mask id="b" fill="#fff">
                <use xlink:href="#a"/>
            </mask>
            <use fill="#FFF" xlink:href="#a"/>
            <g stroke="#C79E59" mask="url(#b)">
                <g transform="translate(14 2)">
                    <circle cx="8.5" cy="8.5" r="8.5" fill="#FFF"/>
                    <path fill="#C79E59" stroke-width=".5" d="M8.757 7.562v.502l-.276-.056c-1-.213-2.277-.69-2.074-2.316C6.556 4.657 7.722 4 9.074 4c1.426 0 2.5.723 2.63 1.873h-.574c-.13-.838-.945-1.38-2.056-1.38-1.074 0-2 .493-2.111 1.248-.167 1.216.87 1.627 1.648 1.79l.146.03zm.868.178l.264.055C11.444 8.14 12 8.945 12 9.848 12 11.129 10.852 12 9.056 12c-1.408 0-2.76-.64-3.056-1.955h.556c.277.674.925 1.462 2.5 1.462 1.463 0 2.388-.673 2.388-1.659 0-.69-.444-1.298-1.666-1.577l-.153-.03v-.5z"/>
                </g>
                <g transform="rotate(-26 35.038 -43.081)">
                    <circle cx="8.509" cy="7.799" r="7.688" fill="#FFF"/>
                    <path fill="#C79E59" stroke-width=".5" d="M8.301 7.378v.483l-.235-.054c-.854-.205-1.946-.663-1.772-2.226.127-.994 1.123-1.625 2.278-1.625 1.218 0 2.135.694 2.246 1.8h-.49c-.111-.806-.807-1.327-1.756-1.327-.918 0-1.708.474-1.803 1.2-.143 1.168.743 1.563 1.407 1.72l.125.03zm.741.172l.226.052c1.329.331 1.803 1.105 1.803 1.973 0 1.231-.98 2.068-2.515 2.068-1.202 0-2.357-.616-2.61-1.878h.475c.237.647.79 1.404 2.135 1.404 1.25 0 2.04-.647 2.04-1.594 0-.663-.379-1.247-1.423-1.515l-.13-.03v-.48z"/>
                </g>
                <g transform="rotate(-4 81.091 -62.056)">
                    <circle cx="7.909" cy="8.346" r="7.688" fill="#FFF"/>
                    <path fill="#C79E59" stroke-width=".5" d="M7.701 7.925v.483l-.235-.054c-.854-.205-1.946-.663-1.772-2.226.127-.994 1.124-1.626 2.278-1.626 1.218 0 2.136.695 2.246 1.8h-.49c-.11-.805-.807-1.326-1.756-1.326-.917 0-1.708.473-1.803 1.2-.142 1.168.743 1.562 1.408 1.72l.124.029zm.742.172l.225.052c1.329.331 1.803 1.105 1.803 1.973 0 1.231-.98 2.068-2.515 2.068-1.202 0-2.356-.616-2.61-1.879h.475c.237.648.79 1.405 2.135 1.405 1.25 0 2.04-.647 2.04-1.594 0-.663-.379-1.247-1.423-1.516l-.13-.03v-.48z"/>
                </g>
            </g>
        </g>
    </g>
</svg>
