<svg xmlns="http://www.w3.org/2000/svg" width="21" height="21" viewBox="0 0 21 21">
    <g fill="none" fill-rule="evenodd">
        <rect width="21" height="21" fill="#C79E59" rx="6"/>
        <path fill="#FFF" fill-rule="nonzero" d="M6.92 2C4.207 2 2 4.213 2 6.934v7.134C2 16.788 4.207 19 6.92 19h7.16c2.713 0 4.92-2.212 4.92-4.932V6.934C19 4.214 16.793 2 14.08 2H6.92zm0 1.461h7.16a3.445 3.445 0 0 1 3.463 3.473v7.134a3.444 3.444 0 0 1-3.463 3.47H6.92a3.443 3.443 0 0 1-3.462-3.47V6.934A3.444 3.444 0 0 1 6.92 3.46zm8.142 1.462a1.02 1.02 0 0 0-1.019 1.022 1.02 1.02 0 1 0 2.039 0 1.02 1.02 0 0 0-1.02-1.022zm-4.562 1.2c-2.403 0-4.366 1.968-4.366 4.377s1.963 4.377 4.366 4.377c2.403 0 4.368-1.968 4.368-4.377S12.903 6.123 10.5 6.123zm0 1.461a2.902 2.902 0 0 1 2.91 2.916 2.902 2.902 0 0 1-2.91 2.916A2.9 2.9 0 0 1 7.592 10.5 2.9 2.9 0 0 1 10.5 7.584z"/>
    </g>
</svg>
