<svg xmlns="http://www.w3.org/2000/svg" width="64" height="64" viewBox="0 0 64 64">
    <g fill="none" fill-rule="evenodd" transform="translate(1 1)">
        <circle cx="31" cy="31" r="31" fill="#FFF" stroke="#C79E59" stroke-width="2"/>
        <path fill="#C79E59" d="M30.65 29.802v1.946l-.965-.216c-3.5-.828-7.972-2.674-7.26-8.976.52-4.01 4.603-6.556 9.334-6.556 4.991 0 8.75 2.8 9.204 7.257h-2.01c-.453-3.247-3.305-5.347-7.194-5.347-3.759 0-7 1.91-7.389 4.837-.583 4.71 3.047 6.302 5.769 6.939l.51.116zm3.038.692l.923.21C40.056 32.041 42 35.16 42 38.661 42 43.626 37.981 47 31.694 47 26.77 47 22.037 44.517 21 39.425h1.944c.973 2.61 3.241 5.665 8.75 5.665 5.12 0 8.362-2.61 8.362-6.429 0-2.673-1.556-5.029-5.834-6.11l-.535-.12v-1.937z"/>
    </g>
</svg>
