<svg xmlns="http://www.w3.org/2000/svg" width="26" height="18" viewBox="0 0 26 18">
    <path fill="#C79E59" fill-rule="nonzero" d="M23.054 8.003c1.46-.122 2.45-.789 2.832-1.694-.527.325-2.162.68-3.065.342a11.258 11.258 0 0 0-.142-.598c-.688-2.54-3.044-4.585-5.513-4.338.2-.081.403-.157.605-.224.271-.098 1.866-.359 1.615-.924-.212-.498-2.16.376-2.527.49C17.344.874 18.144.559 18.23 0a3.859 3.859 0 0 0-2.032.967c.203-.22.357-.487.39-.776-1.979 1.27-3.134 3.83-4.07 6.315-.734-.715-1.385-1.279-1.969-1.591-1.638-.883-3.596-1.804-6.67-2.951-.095 1.022.503 2.381 2.224 3.285-.373-.05-1.055.062-1.6.193.222 1.171.947 2.136 2.911 2.603-.897.06-1.361.264-1.782.707.41.814 1.407 1.773 3.201 1.576-1.995.864-.813 2.465.81 2.226-2.77 2.875-7.136 2.664-9.643.26 6.547 8.964 20.777 5.3 22.898-3.334 1.589.014 2.523-.553 3.102-1.178-.915.156-2.242-.005-2.946-.3z"/>
</svg>
