<svg xmlns="http://www.w3.org/2000/svg" width="62" height="62" viewBox="0 0 62 62">
    <g fill="#C79E59" fill-rule="nonzero">
        <path d="M57.5 23.9l.5-7.8c0-.4-.2-.8-.5-1l-7-3.5-3.5-7c-.2-.4-.6-.6-1-.5l-7.8.5L31.6.3c-.3-.2-.8-.2-1.1 0l-6.6 4.3-7.8-.6c-.4 0-.8.2-1 .5l-3.5 7-7 3.5c-.4.2-.6.6-.5 1l.5 7.8-4.3 6.6c-.2.3-.2.8 0 1.1l4.3 6.6-.6 7.8c0 .4.2.8.5 1l7 3.5 3.5 7c.2.4.6.6 1 .5l7.8-.5 6.6 4.3c.2.1.4.2.5.2.1 0 .4-.1.5-.2l6.6-4.3 7.8.5c.4 0 .8-.2 1-.5l3.5-7 7-3.5c.4-.2.6-.6.5-1l-.5-7.8 4.3-6.6c.2-.3.2-.8 0-1.1l-4.1-6.5zm-1.8 13.4c-.1.2-.2.4-.2.6l.4 7.5-6.7 3.4c-.2.1-.3.3-.4.4l-3.4 6.7-7.5-.4c-.2 0-.4 0-.6.2L31 59.8l-6.3-4.1c-.2-.1-.4-.2-.5-.2h-.1l-7.5.4-3.4-6.7c-.1-.2-.3-.3-.4-.4l-6.7-3.4.4-7.5c0-.2 0-.4-.2-.6L2.2 31l4.1-6.3c.1-.2.2-.4.2-.6l-.4-7.5 6.7-3.4c.2-.1.3-.3.4-.4l3.4-6.7 7.5.4c.2 0 .4 0 .6-.2L31 2.2l6.3 4.1c.2.1.4.2.6.2l7.5-.4 3.4 6.7c.1.2.3.3.4.4l6.7 3.4-.4 7.5c0 .2 0 .4.2.6l4.1 6.3-4.1 6.3z"/>
        <path d="M23.2 28.7c3.6 0 6.4-2.9 6.4-6.4 0-3.5-2.9-6.4-6.4-6.4-3.6 0-6.4 2.9-6.4 6.4 0 3.5 2.9 6.4 6.4 6.4zm0-10.9c2.4 0 4.4 2 4.4 4.4 0 2.4-2 4.4-4.4 4.4-2.4 0-4.4-2-4.4-4.4 0-2.4 2-4.4 4.4-4.4zM38.8 33.3c-3.6 0-6.4 2.9-6.4 6.4 0 3.5 2.9 6.4 6.4 6.4 3.6 0 6.4-2.9 6.4-6.4 0-3.5-2.9-6.4-6.4-6.4zm0 10.9c-2.4 0-4.4-2-4.4-4.4 0-2.4 2-4.4 4.4-4.4 2.4 0 4.4 2 4.4 4.4 0 2.4-2 4.4-4.4 4.4zM17.494 43.092l25.668-25.668 1.414 1.414-25.668 25.668z"/>
    </g>
</svg>
