<svg xmlns="http://www.w3.org/2000/svg" width="73" height="60" viewBox="0 0 73 60">
    <g fill="#C79E59" fill-rule="nonzero" transform="rotate(-48 38.746 27.877)">
        <circle cx="62.407" cy="38.004" r="1.054"/>
        <circle cx="67.242" cy="25.622" r="1.054"/>
        <circle cx="9.593" cy="17.379" r="1.054"/>
        <circle cx="14.428" cy="4.999" r="1.054"/>
        <circle cx="4.758" cy="29.759" r="1.054"/>
        <path d="M29.556 17.186a1.055 1.055 0 0 0-1.486.126l-6.842 8.103.46-10.595a1.055 1.055 0 0 0-2.107-.092l-.594 13.683c-.02.45.25.864.67 1.028.125.05.79.177 1.19-.302l8.835-10.464c.375-.445.32-1.11-.126-1.487zM34.087 18.895a1.055 1.055 0 0 0-1.366.599l-4.715 12.074a1.055 1.055 0 0 0 .599 1.366c.126.049.98.308 1.366-.6l4.715-12.073a1.055 1.055 0 0 0-.6-1.366zM43.822 24.186c-1.216-2.377-4.456-3.24-4.593-3.275a1.055 1.055 0 0 0-1.247.638l-4.715 12.073a1.055 1.055 0 0 0 .6 1.366c.125.05.997.284 1.365-.598l1.568-4.015c.874.38 2.708.991 4.418.38 1.23-.44 2.136-1.387 2.693-2.816.518-1.327.488-2.625-.09-3.753zm-1.876 2.986c-.329.844-.797 1.365-1.432 1.594-1 .362-2.296-.059-2.947-.356l2.01-5.145c.839.362 1.917.995 2.37 1.886.3.59.3 1.252 0 2.021z"/>
        <path d="M71.728 23.495a3.196 3.196 0 0 0-1.776-1.705l-14.197-5.544a1.055 1.055 0 0 0-.767 1.965l14.197 5.544c.568.222.85.865.628 1.434l-1.007 2.58a1.176 1.176 0 0 1-1.043.764 4.412 4.412 0 0 0-3.957 2.806 4.411 4.411 0 0 0 1.008 4.745c.326.322.424.82.25 1.269l-1.145 2.928a1.177 1.177 0 0 1-1.042.765 4.412 4.412 0 0 0-3.958 2.806 4.411 4.411 0 0 0 1.009 4.745c.326.323.424.82.249 1.269l-1.008 2.58c-.222.568-.865.85-1.433.628L2.816 31.627a1.108 1.108 0 0 1-.63-1.434l1.008-2.579a1.176 1.176 0 0 1 1.043-.765 4.412 4.412 0 0 0 3.957-2.805 4.411 4.411 0 0 0-1.008-4.745 1.177 1.177 0 0 1-.25-1.27l1.145-2.928a1.177 1.177 0 0 1 1.042-.765 4.412 4.412 0 0 0 3.958-2.806 4.411 4.411 0 0 0-1.009-4.745 1.177 1.177 0 0 1-.249-1.269l1.008-2.58c.222-.568.865-.85 1.433-.627l36.055 14.08a1.054 1.054 0 1 0 .767-1.966L15.032.343a3.22 3.22 0 0 0-4.166 1.827L9.859 4.749a3.284 3.284 0 0 0 .73 3.536 2.304 2.304 0 0 1-1.54 3.943 3.284 3.284 0 0 0-2.933 2.105l-1.144 2.93a3.284 3.284 0 0 0 .73 3.535 2.303 2.303 0 0 1-1.54 3.943 3.284 3.284 0 0 0-2.933 2.105l-1.007 2.58c-.312.8-.295 1.674.05 2.46a3.196 3.196 0 0 0 1.776 1.706l54.92 21.446c1.66.654 3.462-.021 4.166-1.826l1.007-2.579a3.284 3.284 0 0 0-.73-3.536 2.304 2.304 0 0 1 1.54-3.943 3.284 3.284 0 0 0 2.933-2.105l1.144-2.93a3.284 3.284 0 0 0-.73-3.535 2.303 2.303 0 0 1 1.54-3.943 3.284 3.284 0 0 0 2.933-2.106l1.007-2.58c.312-.8.295-1.673-.05-2.46z"/>
        <path d="M63.122 25.422a2.487 2.487 0 0 0-1.382-1.326L19.508 7.604a2.506 2.506 0 0 0-3.242 1.42L8.825 28.08a2.487 2.487 0 0 0 .039 1.915c.268.612.76 1.084 1.382 1.327l1.905.744a1.055 1.055 0 1 0 .768-1.965l-1.906-.744c-.323-.15-.275-.378-.223-.51l7.44-19.055a.394.394 0 0 1 .51-.224l30.766 12.015L41.78 41.37l-24.362-9.513a1.055 1.055 0 0 0-.767 1.965l35.828 13.99c.295.116 1.202.302 1.915-.038.714-.34 1.084-.76 1.327-1.383l7.441-19.054a2.488 2.488 0 0 0-.039-1.916zM43.744 42.14l7.727-19.789 3.907 1.526-7.727 19.788-3.907-1.525zM61.196 26.57l-7.44 19.055c-.103.244-.268.315-.51.223l-3.63-1.418 7.727-19.788 3.63 1.417c.222.093.326.234.223.51z"/>
        <circle cx="57.573" cy="50.384" r="1.054"/>
    </g>
</svg>
