<svg xmlns="http://www.w3.org/2000/svg" width="40" height="69" viewBox="0 0 40 69">
    <g fill="none" fill-rule="evenodd" transform="translate(1 1)">
        <rect width="38" height="67" fill="#FFF" stroke="#C79E59" stroke-width="2" rx="4"/>
        <rect width="10" height="1" x="14" y="63" fill="#C79E59" rx=".5"/>
        <path fill="#C79E59" d="M10 .806h18l-1.706 2.725a1 1 0 0 1-.848.469H12.554a1 1 0 0 1-.848-.47L10 .807z"/>
        <circle cx="19" cy="32" r="10" fill="#FFF" stroke="#C79E59" stroke-width="2"/>
        <path fill="#C79E59" d="M19.08 37.688c-1.944 0-3.888-1.128-4.08-3.264h1.416c.168.936 1.032 1.896 2.664 1.896 1.608 0 2.592-.792 2.592-1.92 0-.912-.624-1.512-1.776-1.8l-1.608-.384c-1.584-.384-2.856-1.2-2.856-3.072 0-1.824 1.56-3.144 3.696-3.144 1.872 0 3.6 1.032 3.672 3.048h-1.488c-.072-1.008-1.056-1.68-2.16-1.68-1.296 0-2.184.744-2.184 1.8s.912 1.512 1.728 1.704l1.656.408c2.184.528 2.856 1.848 2.856 3.144 0 1.992-1.8 3.264-4.128 3.264z"/>
    </g>
</svg>
