<svg xmlns="http://www.w3.org/2000/svg" width="62" height="39" viewBox="0 0 62 39">
    <g fill="none" fill-rule="evenodd">
        <rect width="60" height="37" x="1" y="1" fill="#FFF" stroke="#C79E59" stroke-width="2" rx="5"/>
        <path fill="#C79E59" d="M51.315 5.243L33.828 20.808a3.837 3.837 0 0 1-5.182 0L11.203 5.243a.72.72 0 0 0-.518-.203.721.721 0 0 0-.45 1.263l9.602 8.485-11.58 10.078a.728.728 0 1 0 .946 1.105L20.828 15.87a.721.721 0 0 0 .113-.09l6.759 6.11a5.262 5.262 0 0 0 7.074 0l6.804-6.133c.033.042.07.08.112.113L53.315 25.97a.726.726 0 1 0 .947-1.105L42.659 14.788l9.625-8.485a.722.722 0 1 0-.969-1.06zM15.168 30.832c0 .92.712 1.664 1.624 1.664.912 0 1.632-.744 1.632-1.664 0-.92-.72-1.672-1.632-1.672-.912 0-1.624.752-1.624 1.672zm-1.168 0C14 29.264 15.232 28 16.792 28c1.568 0 2.8 1.264 2.8 2.832 0 1.552-1.232 2.824-2.8 2.824-1.56 0-2.792-1.272-2.792-2.824zm7.568 2.744v-5.512h3.448v1.032h-2.272v1.256h1.8v1.024h-1.8v2.2h-1.176zm5.304 0v-5.512h3.448v1.032h-2.272v1.256h1.8v1.024h-1.8v2.2h-1.176zm5.304 0v-5.512h3.488v1.032h-2.32v1.256h2.032v1.016h-2.032v1.176h2.392v1.032h-3.56zm7.808-4.48H38.96v1.552h.992c.456 0 .696-.416.696-.776 0-.344-.224-.776-.664-.776zm.512 2.528l1.368 1.952h-1.408l-1.232-1.904h-.264v1.904h-1.176v-5.512h2.256c1.248 0 1.832.904 1.832 1.808 0 .784-.432 1.552-1.376 1.752zm3.088.336h1.176c.016.352.296.664.824.664.472 0 .8-.224.808-.584.008-.248-.104-.464-.664-.624l-.664-.184c-1.216-.376-1.424-1.088-1.424-1.584 0-.984.84-1.648 1.896-1.648 1.064 0 1.864.632 1.864 1.688h-1.168c0-.368-.248-.624-.712-.624-.408 0-.712.224-.712.552 0 .144.056.408.592.56l.656.208c1.336.384 1.528 1.136 1.512 1.664-.016 1.096-1.008 1.616-1.984 1.616-1.2 0-2-.712-2-1.704z"/>
    </g>
</svg>
